<svg xmlns="http://www.w3.org/2000/svg" width="13" height="12" viewBox="0 0 13 12"><g><g><path fill="#dd1c33" d="M12 6c0 2.757-2.467 5-5.5 5S1 8.757 1 6s2.467-5 5.5-5S12 3.243 12 6zm-.688 0c0-2.412-2.158-4.375-4.812-4.375-2.654 0-4.813 1.963-4.813 4.375s2.16 4.375 4.813 4.375c2.654 0 4.813-1.963 4.813-4.375zm-4.468-.13l1.962 1.784-.487.442-2.163-1.967V2.875h.688z"/><path fill="none" stroke="#dd1c33" stroke-miterlimit="20" stroke-width=".5" d="M12 6c0 2.757-2.467 5-5.5 5S1 8.757 1 6s2.467-5 5.5-5S12 3.243 12 6zm-.688 0c0-2.412-2.158-4.375-4.812-4.375-2.654 0-4.813 1.963-4.813 4.375s2.16 4.375 4.813 4.375c2.654 0 4.813-1.963 4.813-4.375zm-4.468-.13l1.962 1.784-.487.442-2.163-1.967V2.875h.688z"/></g></g></svg>