<svg xmlns="http://www.w3.org/2000/svg" width="10" height="10" viewBox="0 0 10 10"><g><g><path fill="#dd1c33" d="M.27 3.96c-.178-.479-.306-.968-.258-1.485.03-.318.16-.588.408-.809.16-.14.313-.283.468-.427.107-.1.213-.2.322-.298.346-.316.774-.309 1.11.014a156.555 156.555 0 0 0 .82.801c.135.13.269.261.402.393.351.347.348.747-.013 1.083l-.194.18c-.194.182-.388.362-.585.54-.07.062-.076.114-.041.194.165.392.407.742.68 1.07.549.66 1.172 1.248 1.918 1.705.097.06.2.11.304.16.067.033.134.065.2.1.086.046.144.032.215-.036.257-.246.52-.489.784-.731.346-.317.772-.314 1.109.013.412.399.822.8 1.23 1.202.343.337.335.745-.02 1.076-.08.075-.16.148-.242.222-.162.146-.325.293-.474.45-.33.34-.74.449-1.204.419-.678-.043-1.299-.265-1.898-.55a10.286 10.286 0 0 1-3.402-2.603C1.212 5.83.64 4.95.27 3.96z"/></g></g></svg>