<svg xmlns="http://www.w3.org/2000/svg" width="10" height="10" viewBox="0 0 10 10"><defs><clipPath id="e9gia"><path fill="#fff" d="M.764 9.733V.267h8.472v9.466zm1.027-5.461c.296.818.747 1.541 1.293 2.208a8.031 8.031 0 0 0 2.653 2.124c.466.23.947.409 1.47.438.36.02.675-.075.925-.36.114-.132.237-.255.361-.378l.185-.186c.27-.278.271-.617.003-.893-.319-.33-.64-.658-.962-.984-.263-.268-.592-.266-.855 0-.2.204-.402.407-.597.614-.055.057-.099.07-.166.032a4.46 4.46 0 0 0-.155-.08c-.08-.041-.16-.082-.237-.13-.58-.372-1.067-.854-1.498-1.395a3.622 3.622 0 0 1-.537-.88c-.028-.066-.023-.11.03-.162.15-.15.298-.301.446-.453l.148-.152c.274-.282.273-.614-.002-.898l-.314-.322-.156-.16c-.161-.166-.323-.333-.485-.496-.264-.264-.594-.266-.857 0-.083.082-.165.166-.246.25-.118.12-.235.242-.356.36-.19.184-.287.41-.306.674-.032.43.072.833.215 1.229z"/></clipPath></defs><g><g><path fill="none" stroke="#000" stroke-miterlimit="20" stroke-width="1.4" d="M1.791 4.272c-.143-.396-.247-.8-.215-1.229.02-.264.116-.49.306-.675.121-.117.238-.238.356-.36l.246-.25c.263-.265.593-.263.857 0a122.046 122.046 0 0 0 .642.656l.313.323c.275.284.276.616.002.898l-.148.152c-.148.152-.295.304-.446.453-.053.052-.058.096-.03.161.132.323.323.611.537.88.43.542.917 1.024 1.498 1.396.076.048.156.089.237.13.052.025.104.052.155.08.067.037.111.025.166-.032.195-.207.396-.41.597-.614.263-.266.592-.268.855 0 .322.326.643.655.962.985.268.276.267.614-.003.892-.06.062-.123.124-.185.186-.124.123-.247.246-.361.377-.25.286-.566.38-.924.36-.524-.028-1.005-.207-1.471-.437A8.031 8.031 0 0 1 3.084 6.48c-.546-.667-.997-1.39-1.293-2.208z" clip-path="url(&quot;#e9gia&quot;)"/></g></g></svg>